<svg width="150" height="140" viewBox="0 0 150 140" fill="none" xmlns="http://www.w3.org/2000/svg">
<path d="M70.1085 22.6588C43.812 22.6588 22.5244 43.9464 22.5244 70.2428C22.5244 96.5393 43.812 117.827 70.1085 117.827C96.4049 117.827 117.693 96.5393 117.693 70.2428C117.693 43.9464 96.4049 22.6588 70.1085 22.6588ZM101.57 45.3551C98.2833 45.6682 94.9962 45.9812 91.5526 46.1377C90.3004 46.2943 88.8917 46.2943 87.4829 46.4508C86.2307 40.9724 84.5089 35.9635 82.4741 32.0503C90.1439 34.5548 96.718 39.2506 101.57 45.3551ZM70.1085 110.47C66.9779 110.47 62.9083 104.366 60.2473 93.8783C66.8214 93.7218 73.3955 93.7218 79.8131 93.8783C77.3087 104.366 73.239 110.47 70.1085 110.47ZM58.8386 86.3651C58.2125 82.6084 57.8994 78.3822 57.7429 73.9995H82.4741C82.3176 78.5387 82.0045 82.6084 81.3784 86.3651C73.8651 86.2085 66.3518 86.2085 58.8386 86.3651ZM70.1085 30.0155C73.239 30.0155 77.3087 36.12 79.9697 46.6073C76.8391 46.7638 73.5521 46.7638 70.1085 46.7638C66.8214 46.7638 63.5344 46.7638 60.2473 46.6073C62.9083 36.12 66.9779 30.0155 70.1085 30.0155ZM70.1085 54.2771C74.0216 54.2771 77.6218 54.2771 81.3784 54.1206C82.0045 57.8772 82.3176 62.1034 82.4741 66.4862H57.7429C57.8994 61.9469 58.2125 57.8772 58.8386 54.1206C62.5952 54.2771 66.3518 54.2771 70.1085 54.2771ZM50.3861 66.4862H30.1942C30.6638 61.4773 32.0725 56.625 34.2639 52.3988C38.8032 52.8684 43.499 53.338 48.3513 53.651C49.447 53.651 50.5427 53.8075 51.6383 53.8075C50.8557 57.8772 50.5427 62.26 50.3861 66.4862ZM50.3861 73.9995C50.5427 78.3822 50.8557 82.6084 51.4818 86.8346C50.3861 86.8346 49.2905 86.9912 48.3513 86.9912C43.6555 87.3042 38.9597 87.6173 34.2639 88.2434C32.0725 83.8606 30.6638 79.1648 30.1942 74.156H50.3861V73.9995ZM89.8308 73.9995H110.023C109.553 79.0083 108.144 83.8606 105.953 88.0869C101.414 87.6173 96.718 87.1477 92.0222 86.8346C90.9265 86.8346 89.8308 86.6781 88.7351 86.6781C89.3612 82.6084 89.8308 78.3822 89.8308 73.9995ZM89.8308 66.4862C89.6743 62.1034 89.3612 57.8772 88.7351 53.8075C89.8308 53.8075 90.9265 53.651 92.0222 53.651C96.8745 53.338 101.57 52.8684 105.953 52.3988C108.144 56.7815 109.553 61.4773 110.023 66.4862H89.8308ZM57.8994 32.0503C55.708 35.9635 53.9862 40.9724 52.8906 46.4508C51.4818 46.4508 50.0731 46.2943 48.8209 46.2943C45.3773 46.1377 42.0902 45.8247 38.8032 45.5116C43.499 39.2506 50.2296 34.5548 57.8994 32.0503ZM38.6466 95.1305C41.9337 94.8175 45.3773 94.5044 48.6643 94.3479C50.0731 94.1914 51.3253 94.1914 52.734 94.1914C53.9862 99.6698 55.708 104.679 57.7429 108.592C50.2296 106.087 43.499 101.392 38.6466 95.1305ZM82.4741 108.435C84.6655 104.522 86.2307 99.5133 87.4829 94.0349C88.8917 94.0349 90.3004 94.1914 91.7091 94.1914C95.1527 94.3479 98.4398 94.661 101.727 94.974C96.718 101.235 90.1439 106.087 82.4741 108.435Z" fill="#9A9A9A"/>
<path d="M148.684 62.8859C148.214 61.9467 147.119 61.3206 146.023 61.3206H140.388C138.51 47.0767 132.249 33.3024 122.388 22.8151C110.492 9.97991 93.8997 1.68401 76.6818 0.275268C59.4639 -1.29 41.6198 3.87538 28.002 14.3627C14.2277 24.8499 4.52304 40.5026 1.54904 57.4075C-1.73802 74.3123 1.86209 92.3129 10.9406 106.87C20.0192 121.427 34.5761 132.384 51.168 137.079C67.6032 141.775 85.7603 139.897 100.943 132.384C108.457 128.471 115.344 123.305 121.135 117.044C126.77 110.626 131.31 103.426 134.44 95.4434C135.066 94.0347 134.284 92.3129 132.875 91.6868C131.466 91.0607 129.744 91.8433 129.118 93.252C126.144 100.452 122.074 107.183 116.753 112.974C111.431 118.609 105.17 123.305 98.1259 126.905C84.1951 133.792 67.7598 135.201 52.8897 130.818C38.0197 126.592 25.028 116.574 16.8886 103.426C8.90579 89.965 5.93178 73.8427 8.90579 58.8162C11.7233 43.7896 20.4888 29.8588 32.6978 20.7802C44.9069 11.5452 60.5595 7.16244 75.7426 8.7277C90.9257 10.1364 105.326 17.4932 115.5 28.7631C123.64 37.8416 128.962 49.2681 130.683 61.3206H126.457C125.362 61.3206 124.266 61.9467 123.796 62.8859C123.17 63.825 123.327 65.0773 123.953 66.0164L133.657 81.043C134.284 81.9821 135.223 82.4517 136.318 82.4517C137.414 82.4517 138.353 81.9821 138.979 81.043L148.684 66.0164C149.154 65.2338 149.154 63.9816 148.684 62.8859Z" fill="#9A9A9A"/>
</svg>
